<svg xmlns="http://www.w3.org/2000/svg" width="275.625" height="175.749" viewBox="0 0 275.625 175.749"><defs><style>.a{fill:#e9e9f0;}</style></defs><g transform="translate(-0.2 -0.8)"><path class="a" d="M133.244,106a35.578,35.578,0,1,0-39.151,0A56.968,56.968,0,0,0,56.8,159.437h9.43a47.438,47.438,0,1,1,94.876,0h9.43A56.851,56.851,0,0,0,133.244,106Zm-19.575-3.572a26.148,26.148,0,1,1,26.148-26.148A26.16,26.16,0,0,1,113.668,102.426Z" transform="translate(24.273 17.111)"/><path class="a" d="M158.7,89.4A35.586,35.586,0,0,0,139.12,24.1,35.814,35.814,0,0,0,108.4,41.675a47.437,47.437,0,0,1,8.43,4.429,27.823,27.823,0,0,1,6.43-7.144,25.654,25.654,0,0,1,15.86-5.43,26.145,26.145,0,0,1,7.144,51.3,28.561,28.561,0,0,1-7,1,13.073,13.073,0,0,1-2.429-.143,44.4,44.4,0,0,1-1.572,9.859,40.371,40.371,0,0,1,4.144-.286,37.082,37.082,0,0,1,5.715.429,47.572,47.572,0,0,1,41.865,47.152h9.43A58.111,58.111,0,0,0,158.7,89.4Z" transform="translate(46.402 9.992)"/><path class="a" d="M80.368,95.4a40.367,40.367,0,0,1,4.144.286,44.4,44.4,0,0,1-1.572-9.859,14.7,14.7,0,0,1-2.429.143,27.6,27.6,0,0,1-7-1A26.181,26.181,0,0,1,80.368,33.53,26.3,26.3,0,0,1,102.658,46.1a42.987,42.987,0,0,1,8.43-4.429A35.594,35.594,0,1,0,60.793,89.4,56.968,56.968,0,0,0,23.5,142.837h9.43A47.572,47.572,0,0,1,74.8,95.685C76.653,95.543,78.511,95.4,80.368,95.4Z" transform="translate(9.992 9.992)"/><path class="a" d="M182,66.1A35.586,35.586,0,0,0,162.42.8a35.287,35.287,0,0,0-24.576,9.859,35.615,35.615,0,0,0-6.144,7.716,47.436,47.436,0,0,1,8.43,4.429,27.824,27.824,0,0,1,6.43-7.144,25.654,25.654,0,0,1,15.86-5.43A26.107,26.107,0,0,1,173.28,60.1a37.255,37.255,0,0,1,.714,6.858,44.7,44.7,0,0,1-.572,6.287A47.629,47.629,0,0,1,210,119.395h9.43A57.541,57.541,0,0,0,182,66.1Z" transform="translate(56.394 0)"/><path class="a" d="M45.637,67.056a34.824,34.824,0,0,1,.714-6.858A26.107,26.107,0,0,1,57.211,10.331,26.3,26.3,0,0,1,79.5,22.9a42.987,42.987,0,0,1,8.43-4.429,35.615,35.615,0,0,0-6.144-7.716,35.675,35.675,0,0,0-60.3,25.719,35.793,35.793,0,0,0,16,29.72A56.921,56.921,0,0,0,.2,119.495H9.63A47.476,47.476,0,0,1,46.209,73.343,44.7,44.7,0,0,1,45.637,67.056Z" transform="translate(0 0.043)"/><path class="a" d="M106.935,10.373A26.19,26.19,0,0,1,132.512,31.52a29.559,29.559,0,0,1,9-3.858,35.594,35.594,0,0,0-69.013,0,31.224,31.224,0,0,1,9,3.858A25.8,25.8,0,0,1,106.935,10.373Z" transform="translate(31.006 0)"/></g></svg>