<svg xmlns="http://www.w3.org/2000/svg" width="19.907" height="17.692" viewBox="0 0 19.907 17.692"><defs><style>.a{fill:#4d4f5c;}</style></defs><path class="a" d="M13.914,2.879,17.032,6a.338.338,0,0,1,0,.477L9.484,14.022l-3.207.356a.672.672,0,0,1-.743-.743l.356-3.207,7.548-7.548A.338.338,0,0,1,13.914,2.879Zm5.6-.791L17.827.4a1.352,1.352,0,0,0-1.908,0L14.7,1.624a.338.338,0,0,0,0,.477l3.117,3.117a.338.338,0,0,0,.477,0L19.513,4a1.352,1.352,0,0,0,0-1.908Zm-6.242,9.881v3.518H2.212V4.427h7.942a.425.425,0,0,0,.294-.121L11.83,2.924a.415.415,0,0,0-.294-.709H1.659A1.659,1.659,0,0,0,0,3.874V16.04A1.659,1.659,0,0,0,1.659,17.7H13.824a1.659,1.659,0,0,0,1.659-1.659V10.586a.415.415,0,0,0-.709-.294l-1.382,1.382A.425.425,0,0,0,13.271,11.969Z" transform="translate(0 -0.007)"/></svg>