<svg xmlns="http://www.w3.org/2000/svg" width="15.48" height="17.692" viewBox="0 0 15.48 17.692"><defs><style>.a{fill:#d90000;}</style></defs><path class="a" d="M14.375,16.033a1.659,1.659,0,0,1-1.659,1.659H2.764a1.659,1.659,0,0,1-1.659-1.659V4.423H14.375Zm-9.4-8.846a.553.553,0,1,0-1.106,0v7.74a.553.553,0,1,0,1.106,0Zm3.317,0a.553.553,0,0,0-1.106,0v7.74a.553.553,0,1,0,1.106,0Zm3.317,0a.553.553,0,1,0-1.106,0v7.74a.553.553,0,1,0,1.106,0ZM.553,1.106H4.7L5.024.46A.829.829,0,0,1,5.767,0h3.95a.82.82,0,0,1,.739.46l.325.646h4.147a.553.553,0,0,1,.553.553V2.764a.553.553,0,0,1-.553.553H.553A.553.553,0,0,1,0,2.764V1.659A.553.553,0,0,1,.553,1.106Z" transform="translate(0 0)"/></svg>