<svg xmlns="http://www.w3.org/2000/svg" width="306.91" height="62.264" viewBox="0 0 306.91 62.264"><defs><style>.a{fill:#1c4f75;}.b{fill:#82d827;}</style></defs><path class="a" d="M11.221,8.71H36.539c17.709,0,28.609,9.058,28.609,23.8,0,19.792-14.665,32.294-35.122,32.294H0ZM30.692,50.061c10.019,0,15.4-7.209,15.4-16.427,0-6.488-4.085-10.179-11.707-10.179H27.167L21.874,50.061Z" transform="translate(0 -3.343)"/><path class="b" d="M115.247,17.629h18.06l-8.768,43.835H106.51ZM128.624,0h17.715L129.087,12.823H116.609Z" transform="translate(-40.881)"/><path class="a" d="M229.634,42.294a26.76,26.76,0,0,1-.56,5.444l-4.807,24.206H206.152l4.412-21.874a11.966,11.966,0,0,0,.32-2.73c0-3.284-1.6-4.806-3.931-4.806-3.284,0-5.928,2.083-7.049,7.69l-4.313,21.72H177.469l4.406-21.874a11.965,11.965,0,0,0,.32-2.73c0-3.284-1.6-4.806-3.925-4.806-3.37,0-5.934,2.163-7.135,8.01l-4.245,21.394H148.78l8.762-43.828H174.61l-.881,4.245a18.134,18.134,0,0,1,12.5-5.046c5.287,0,10.259,2.243,12.9,6.975a19.791,19.791,0,0,1,15.4-6.975C223.06,27.308,229.634,32.275,229.634,42.294Z" transform="translate(-57.106 -10.481)"/><path class="a" d="M337.061,54.227H306.369c.8,3.7,3.7,5.127,8.417,5.127a16.064,16.064,0,0,0,9.532-3.044l7.536,10.98c-6.014,4.085-12.5,5.447-19.151,5.447-14.425,0-24.123-7.856-24.123-20.272,0-14.425,10.82-25.165,27.167-25.165,14.024,0,22.275,8.01,22.275,19.311A32.43,32.43,0,0,1,337.061,54.227ZM307.09,45.5h14.345c0-3.7-2.643-5.847-6.488-5.847C310.775,39.648,308.291,42.131,307.09,45.5Z" transform="translate(-110.765 -10.478)"/><path class="a" d="M381.461,3.25h18.109L387.716,62.711H369.6Z" transform="translate(-141.862 -1.247)"/><path class="a" d="M415.12,52.475c0-14.425,11.381-25.165,27.327-25.165,14.5,0,23.8,8.01,23.8,20.272,0,14.425-11.375,25.165-27.327,25.165C424.418,72.747,415.12,64.706,415.12,52.475Zm32.774-4.011c0-4.085-2.4-6.889-6.488-6.889-4.732,0-7.936,3.925-7.936,10.019,0,4.085,2.4,6.889,6.494,6.889C444.69,58.482,447.894,54.557,447.894,48.463Z" transform="translate(-159.334 -10.482)"/></svg>