<svg xmlns="http://www.w3.org/2000/svg" width="19.493" height="14.095" viewBox="0 0 19.493 14.095"><defs><style>.a{fill:none;stroke:#fff;stroke-width:1.5px;}</style></defs><path class="a" d="M5.4,8.547A3.149,3.149,0,1,0,2.249,5.4,3.147,3.147,0,0,0,5.4,8.547Zm2.159.9H7.324a4.347,4.347,0,0,1-3.852,0H3.239A3.239,3.239,0,0,0,0,12.686v.81a1.35,1.35,0,0,0,1.349,1.349h8.1A1.35,1.35,0,0,0,10.8,13.5v-.81A3.239,3.239,0,0,0,7.557,9.447Zm5.938-.9a2.7,2.7,0,1,0-2.7-2.7A2.7,2.7,0,0,0,13.494,8.547Zm1.349.9h-.107a3.545,3.545,0,0,1-2.485,0h-.107a3.123,3.123,0,0,0-1.566.433A4.114,4.114,0,0,1,11.7,12.686v1.08c0,.062-.014.121-.017.18h4.965A1.35,1.35,0,0,0,17.993,12.6a3.147,3.147,0,0,0-3.149-3.149Z" transform="translate(0.75 -1.5)"/></svg>