<svg xmlns="http://www.w3.org/2000/svg" width="19.493" height="14.095" viewBox="0 0 19.493 14.095"><defs><style>.a{fill:none;stroke:#fff;stroke-width:1.5px;}</style></defs><path class="a" d="M2.7,7.648a1.8,1.8,0,1,0-1.8-1.8A1.8,1.8,0,0,0,2.7,7.648Zm12.595,0a1.8,1.8,0,1,0-1.8-1.8A1.8,1.8,0,0,0,15.294,7.648Zm.9.9h-1.8a1.794,1.794,0,0,0-1.268.523,4.112,4.112,0,0,1,2.111,3.076h1.855a.9.9,0,0,0,.9-.9v-.9A1.8,1.8,0,0,0,16.193,8.547Zm-7.2,0A3.149,3.149,0,1,0,5.848,5.4,3.147,3.147,0,0,0,9,8.547Zm2.159.9h-.233a4.347,4.347,0,0,1-3.852,0H6.837A3.239,3.239,0,0,0,3.6,12.686v.81a1.35,1.35,0,0,0,1.349,1.349h8.1A1.35,1.35,0,0,0,14.394,13.5v-.81A3.239,3.239,0,0,0,11.155,9.447ZM4.866,9.07A1.794,1.794,0,0,0,3.6,8.547H1.8a1.8,1.8,0,0,0-1.8,1.8v.9a.9.9,0,0,0,.9.9H2.752A4.123,4.123,0,0,1,4.866,9.07Z" transform="translate(0.75 -1.5)"/></svg>